<svg width="57" height="50" viewBox="0 0 57 50" fill="none" xmlns="http://www.w3.org/2000/svg">
<path d="M35.7594 15.2046C35.4514 15.2058 35.1438 15.229 34.839 15.274C34.2409 14.1079 33.3326 13.1293 32.2142 12.446C31.0958 11.7627 29.8106 11.4012 28.5 11.4012C27.1894 11.4012 25.9042 11.7627 24.7858 12.446C23.6674 13.1293 22.7591 14.1079 22.161 15.274C21.8562 15.229 21.5486 15.2058 21.2406 15.2046C19.7374 15.2041 18.2854 15.7499 17.1546 16.7403C16.0239 17.7307 15.2916 19.0982 15.0941 20.5883C14.8965 22.0784 15.2472 23.5895 16.0808 24.8403C16.9144 26.0911 18.1741 26.9964 19.6254 27.3876V31.1649C20.5008 31.6176 21.446 31.92 22.4215 32.0593V27.9346C22.4215 27.7043 22.513 27.4835 22.6759 27.3206C22.8387 27.1578 23.0596 27.0663 23.2899 27.0663C23.5202 27.0663 23.7411 27.1578 23.9039 27.3206C24.0667 27.4835 24.1582 27.7043 24.1582 27.9346V32.3372C25.1221 32.4501 26.277 32.5369 27.6317 32.563V27.9346C27.6317 27.7043 27.7231 27.4835 27.886 27.3206C28.0488 27.1578 28.2697 27.0663 28.5 27.0663C28.7303 27.0663 28.9512 27.1578 29.114 27.3206C29.2769 27.4835 29.3684 27.7043 29.3684 27.9346V32.5717C30.7317 32.5543 31.8779 32.4761 32.8418 32.3719V27.9346C32.8418 27.7043 32.9333 27.4835 33.0961 27.3206C33.259 27.1578 33.4798 27.0663 33.7101 27.0663C33.9404 27.0663 34.1613 27.1578 34.3242 27.3206C34.487 27.4835 34.5785 27.7043 34.5785 27.9346V32.1027C35.5634 31.9784 36.5139 31.6596 37.3746 31.1649V27.3876C38.8259 26.9964 40.0856 26.0911 40.9192 24.8403C41.7528 23.5895 42.1035 22.0784 41.9059 20.5883C41.7084 19.0982 40.9761 17.7307 39.8454 16.7403C38.7147 15.7499 37.2626 15.2041 35.7594 15.2046ZM37.8088 32.9885C37.6743 32.9216 37.5244 32.8917 37.3746 32.9016C36.5139 33.3963 35.5499 33.6864 34.5785 33.8655C34.0662 33.9697 33.5017 34.0392 32.9026 34.1C32.8901 34.1013 32.9151 34.0986 32.9026 34.1C31.9387 34.2042 30.7317 34.291 29.3684 34.3084C29.1426 34.317 28.8995 34.317 28.6563 34.317C28.4392 34.317 28.2308 34.317 28.0311 34.3084H27.6317V34.2997C26.277 34.2736 25.1221 34.1868 24.1582 34.0739C23.533 34.0131 22.9512 33.8916 22.4215 33.796C21.446 33.6567 20.5008 33.3544 19.6254 32.9016C19.5013 32.8831 19.3746 32.8914 19.254 32.926C19.1333 32.9605 19.0215 33.0206 18.926 33.1021C18.8305 33.1835 18.7536 33.2846 18.7005 33.3983C18.6474 33.512 18.6193 33.6358 18.6181 33.7613V36.9655C18.6181 37.5213 18.6181 39.2232 28.9429 39.2232C30.9428 39.244 32.9418 39.1279 34.9258 38.8759C36.5931 38.6415 38.295 38.2246 38.295 36.9655V33.7613C38.2952 33.5997 38.2496 33.4414 38.1635 33.3047C38.0775 33.1679 37.9545 33.0583 37.8088 32.9885Z" fill="#CD7F32"/>
<path d="M25.3131 43.8863C25.1131 43.8859 24.9151 43.9265 24.7314 44.0057C24.5477 44.0848 24.3821 44.2008 24.2451 44.3465C21.663 43.7666 19.2369 42.635 17.1332 41.0294C17.0995 40.9958 17.0615 40.9666 17.0204 40.9426C14.799 39.2177 13.0006 37.0086 11.7621 34.4835C10.5237 31.9584 9.87784 29.184 9.8738 26.3716V26.3629C9.87428 23.6029 10.494 20.8782 11.6872 18.3895C12.8805 15.9008 14.6169 13.7115 16.7685 11.983C16.9031 11.909 17.0335 11.8279 17.1593 11.7398L17.168 11.7312C17.3416 11.6183 17.6108 11.4706 17.9408 11.297C20.2593 10.0379 25.6952 7.10283 25.2697 1.45852C25.2537 1.24144 25.1562 1.03845 24.9968 0.89027C24.8373 0.742095 24.6277 0.659706 24.41 0.659637C22.1754 0.744987 20.0522 1.658 18.4531 3.22128C16.7425 4.95799 15.8568 7.42412 15.8133 10.5328C15.7887 10.5481 15.7654 10.5655 15.7439 10.5849C14.7167 11.3969 13.7741 12.3104 12.9304 13.3116C12.9825 10.5155 12.392 6.63392 9.27463 4.107C9.17409 4.02479 9.05622 3.96645 8.92988 3.93637C8.80353 3.90629 8.67202 3.90525 8.54521 3.93333C8.41725 3.96027 8.29697 4.01561 8.19326 4.09527C8.08956 4.17493 8.00507 4.27687 7.94605 4.39356C7.82448 4.64538 4.95891 10.5328 6.93876 14.3796C7.29184 15.0475 7.77982 15.6347 8.37175 16.1041C8.96369 16.5734 9.64669 16.9147 10.3774 17.1063C9.52112 18.7488 8.90691 20.5066 8.5539 22.3251C7.38162 19.9197 5.24547 17.2278 1.51154 16.8458C1.39049 16.8343 1.26838 16.8485 1.15318 16.8874C1.03798 16.9263 0.93226 16.9891 0.842911 17.0715C0.75247 17.1505 0.680069 17.2479 0.630625 17.3573C0.581181 17.4667 0.55585 17.5854 0.556354 17.7054C0.556354 17.992 0.565037 23.2803 3.63901 25.9027C4.76975 26.8675 6.21694 27.3809 7.70291 27.3442C7.85652 27.3469 8.01017 27.3411 8.16314 27.3268C8.25584 29.3656 8.66298 31.3779 9.37015 33.2924C6.46416 32.455 3.36155 32.614 0.556354 33.7439C0.435454 33.791 0.326654 33.8645 0.237982 33.9592C0.14931 34.0539 0.083027 34.1673 0.0440244 34.291C0.00231341 34.415 -0.00998567 34.5471 0.00809876 34.6767C0.0261832 34.8063 0.0741557 34.9299 0.148227 35.0378C0.252429 35.1941 2.73592 38.8672 6.19197 38.902H6.25276C7.15257 38.8595 8.03203 38.6196 8.82885 38.1995C9.62568 37.7793 10.3204 37.1891 10.8637 36.4706C11.796 38.091 12.9505 39.5729 14.2937 40.8731C11.6973 41.2726 7.79843 42.8964 6.93876 48.9749C6.92033 49.1029 6.93107 49.2334 6.97016 49.3567C7.00926 49.48 7.0757 49.5929 7.16453 49.6869C7.24448 49.7755 7.34234 49.8461 7.45162 49.894C7.5609 49.9419 7.67912 49.966 7.79843 49.9648H7.85921C7.92868 49.9561 15.0058 49.4004 17.0638 43.1048C19.1723 44.5338 21.537 45.5422 24.028 46.0746C24.1541 46.3017 24.338 46.4915 24.561 46.6246C24.7841 46.7578 25.0384 46.8295 25.2982 46.8327C25.558 46.8359 25.8139 46.7703 26.0402 46.6426C26.2664 46.5149 26.4549 46.3297 26.5864 46.1057C26.718 45.8816 26.788 45.6268 26.7893 45.367C26.7906 45.1073 26.7232 44.8517 26.594 44.6264C26.4647 44.4011 26.2781 44.2139 26.0532 44.084C25.8282 43.954 25.5729 43.8858 25.3131 43.8863Z" fill="#CD7F32"/>
<path d="M56.956 34.291C56.917 34.1673 56.8507 34.0539 56.762 33.9592C56.6733 33.8645 56.5645 33.791 56.4436 33.7439C53.6384 32.614 50.5358 32.455 47.6298 33.2924C48.337 31.3779 48.7442 29.3656 48.8369 27.3268C48.9898 27.3411 49.1435 27.3469 49.2971 27.3442C50.7831 27.3809 52.2302 26.8675 53.361 25.9027C56.435 23.2803 56.4436 17.992 56.4436 17.7054C56.4441 17.5854 56.4188 17.4667 56.3694 17.3573C56.3199 17.2479 56.2475 17.1505 56.1571 17.0715C56.0677 16.9891 55.962 16.9263 55.8468 16.8874C55.7316 16.8485 55.6095 16.8343 55.4885 16.8458C51.7545 17.2278 49.6184 19.9197 48.4461 22.3251C48.0931 20.5066 47.4789 18.7488 46.6226 17.1063C47.3533 16.9147 48.0363 16.5734 48.6282 16.1041C49.2202 15.6347 49.7082 15.0475 50.0612 14.3796C52.0411 10.5328 49.1755 4.64538 49.0539 4.39356C48.9949 4.27687 48.9104 4.17493 48.8067 4.09527C48.703 4.01561 48.5827 3.96027 48.4548 3.93333C48.328 3.90525 48.1965 3.90629 48.0701 3.93637C47.9438 3.96645 47.8259 4.02479 47.7254 4.107C44.608 6.63392 44.0175 10.5155 44.0696 13.3116C43.2259 12.3104 42.2833 11.3969 41.2561 10.5849C41.2346 10.5655 41.2113 10.5481 41.1867 10.5328C41.1432 7.42412 40.2575 4.95799 38.5469 3.22128C36.9477 1.658 34.8246 0.744987 32.5899 0.659637C32.3723 0.659706 32.1627 0.742095 32.0032 0.89027C31.8438 1.03845 31.7463 1.24144 31.7303 1.45852C31.3048 7.10283 36.7407 10.0379 39.0592 11.297C39.3892 11.4793 39.667 11.6183 39.8233 11.7225C39.8233 11.7312 39.832 11.7312 39.8407 11.7398C39.9665 11.8279 40.0969 11.909 40.2315 11.983C42.3831 13.7115 44.1195 15.9008 45.3128 18.3895C46.506 20.8782 47.1257 23.6029 47.1262 26.3629V26.3716C47.1218 29.208 46.4648 32.0054 45.206 34.5472C43.9471 37.0889 42.1202 39.3069 39.8668 41.0294C37.7243 42.6694 35.2451 43.8141 32.6073 44.3813C32.3573 44.1594 32.0383 44.0305 31.7042 44.0166C31.3127 44.0005 30.9308 44.1405 30.6426 44.406C30.3543 44.6714 30.1834 45.0405 30.1672 45.432C30.1511 45.8235 30.2912 46.2054 30.5566 46.4936C30.8221 46.7819 31.1911 46.9529 31.5827 46.969C31.8829 46.9829 32.1802 46.9036 32.4336 46.7419C32.687 46.5802 32.8842 46.3441 32.9981 46.0659C35.4792 45.5326 37.8346 44.5273 39.9362 43.1048C41.9942 49.4004 49.0713 49.9561 49.1408 49.9648H49.2016C49.3209 49.966 49.4391 49.9419 49.5484 49.894C49.6577 49.8461 49.7555 49.7755 49.8355 49.6869C49.9243 49.5929 49.9907 49.48 50.0298 49.3567C50.0689 49.2334 50.0797 49.1029 50.0612 48.9749C49.2016 42.8964 45.3027 41.2726 42.7063 40.8731C44.0495 39.5729 45.204 38.091 46.1363 36.4706C46.6796 37.1891 47.3743 37.7793 48.1711 38.1995C48.968 38.6196 49.8474 38.8595 50.7472 38.902H50.808C54.2641 38.8672 56.7476 35.1941 56.8518 35.0378C56.9258 34.9299 56.9738 34.8063 56.9919 34.6767C57.01 34.5471 56.9977 34.415 56.956 34.291Z" fill="#CD7F32"/>
</svg>
