<svg width="57" height="51" viewBox="0 0 57 51" fill="none" xmlns="http://www.w3.org/2000/svg">
<path d="M28.4999 47.6103C28.2952 47.6103 28.0905 47.5728 27.8962 47.498C27.6139 47.3893 20.904 44.7779 14.0968 39.7878C10.0551 36.8253 6.8244 33.6348 4.49431 30.3052C1.51206 26.044 0 21.5471 0 16.9391C0 7.59912 7.59868 0.000434875 16.9388 0.000434875C21.871 0.000434875 26.5487 2.14517 29.7723 5.88478C30.0405 6.19591 30.1854 6.59453 30.1796 7.00527C30.1738 7.416 30.0177 7.81037 29.7408 8.11379L21.0979 17.5855C20.4233 18.3248 20.7654 19.1037 20.8862 19.325C21.0085 19.5486 21.4846 20.2648 22.4836 20.0943C27.0117 19.3214 31.2824 16.9552 35.1771 13.0614C35.833 12.4056 36.8964 12.4056 37.5525 13.0615L52.4519 27.961C52.7295 28.2385 52.901 28.6045 52.9369 28.9953C52.9727 29.3862 52.8706 29.7772 52.6482 30.1006C49.4006 34.8228 44.4488 39.1865 37.9303 43.0709C33.1091 45.9438 29.265 47.4361 29.1037 47.4983C28.911 47.5723 28.7063 47.6102 28.4999 47.6103Z" fill="#C8366D"/>
<path d="M51.264 30.8284C51.0434 30.8284 50.825 30.7849 50.6212 30.7005C50.4174 30.616 50.2323 30.4923 50.0763 30.3363L36.3371 16.5971C32.2627 20.3065 27.7993 22.5949 23.049 23.4056C20.9592 23.7629 18.9534 22.7932 17.9383 20.9358C16.9266 19.0849 17.1927 16.8809 18.6162 15.3206L27.2436 5.86598C30.4668 2.13783 35.1371 0 40.0612 0C49.4013 0 57 7.59869 57 16.9388C57 21.4707 55.536 25.8987 52.6486 30.0998C52.4943 30.3245 52.2876 30.5082 52.0463 30.6352C51.8051 30.7621 51.5365 30.8284 51.264 30.8284Z" fill="#FFCEA1"/>
<path d="M37.5523 13.0614C36.8964 12.4054 35.8329 12.4055 35.1769 13.0613C33.0563 15.1816 30.824 16.8476 28.4996 18.0514V47.6105H28.4999C28.7047 47.6105 28.9094 47.5731 29.1038 47.4983C29.265 47.4361 33.1094 45.9438 37.9304 43.0709C44.4489 39.1866 49.4007 34.8228 52.6483 30.1006C52.8707 29.7772 52.9729 29.3862 52.937 28.9953C52.9011 28.6045 52.7296 28.2385 52.452 27.961L37.5523 13.0614Z" fill="#86375F"/>
<path d="M40.0611 0.000336077C35.7683 -0.000577642 31.6355 1.62974 28.4995 4.56122V21.7722C31.2403 20.5802 33.8606 18.8517 36.3371 16.5972L50.0764 30.3363C50.2507 30.5107 50.4612 30.6445 50.6931 30.7283C50.9249 30.8122 51.1723 30.8439 51.4178 30.8214C51.6633 30.7988 51.9008 30.7225 52.1135 30.5979C52.3262 30.4732 52.5089 30.3032 52.6485 30.1001C55.5359 25.899 56.9999 21.4709 56.9999 16.9391C56.9999 7.59902 49.4013 0.000336077 40.0611 0.000336077Z" fill="#FFB883"/>
<path d="M32.4777 40.7232C32.3251 39.369 31.6543 38.1552 30.5889 37.3055C29.5235 36.4559 28.1911 36.0716 26.8367 36.2244C26.6268 36.2485 26.4185 36.2854 26.2131 36.335C25.9092 35.3871 25.3338 34.5491 24.5379 33.9144C23.4725 33.0647 22.1399 32.6807 20.7857 32.8333C20.7765 32.8343 20.7674 32.8359 20.7582 32.8371C20.5105 31.6928 19.8824 30.6767 18.9547 29.937C17.8893 29.0873 16.5571 28.7034 15.2025 28.8559C14.9618 28.8831 14.7233 28.9272 14.4887 28.9879C14.1782 28.0575 13.6046 27.2372 12.8373 26.6263C11.7718 25.7766 10.4393 25.393 9.08511 25.5453C7.73092 25.6978 6.51711 26.3687 5.66735 27.4341L2.69968 31.1553C0.945708 33.3548 1.30808 36.5712 3.50759 38.3253C4.44541 39.0732 5.56804 39.4362 6.68344 39.4362C7.11695 39.4362 7.54901 39.3796 7.96905 39.2711C8.27754 40.1958 8.84487 41.0136 9.62494 41.6357C10.5375 42.3635 11.6458 42.7496 12.796 42.7496C12.9887 42.7496 13.1829 42.7387 13.3772 42.7168C13.3875 42.7157 13.3975 42.7138 13.4078 42.7127C13.6486 43.8196 14.2557 44.8537 15.2083 45.6134C16.1461 46.3613 17.2687 46.7243 18.3842 46.7243C18.7881 46.7238 19.1905 46.6756 19.5831 46.5809C19.8868 47.53 20.4626 48.3691 21.2594 49.0044C22.1719 49.7322 23.2802 50.1184 24.4306 50.1184C24.6233 50.1184 24.8173 50.1075 25.0117 50.0856C26.3659 49.9331 27.5797 49.2623 28.4293 48.1969L31.397 44.4757C32.2463 43.41 32.6302 42.0774 32.4777 40.7232Z" fill="#FFCEA1"/>
<path d="M30.5888 37.3055C29.9671 36.8098 29.2543 36.4738 28.4995 36.3093V48.1081L31.3965 44.4756C32.2463 43.4101 32.6301 42.0775 32.4775 40.7234C32.3251 39.369 31.6543 38.1553 30.5888 37.3055Z" fill="#FFB883"/>
</svg>
