<svg width="235" height="60" viewBox="0 0 235 60" fill="none" xmlns="http://www.w3.org/2000/svg">
<g clip-path="url(#clip0_79_2)">
<path d="M2 5.30968V54.1527C2.00133 55.2953 2.45538 56.3907 3.26255 57.1987C4.06972 58.0066 5.16409 58.4611 6.3056 58.4624H7.7408V1H6.3056C5.16409 1.00133 4.06972 1.45581 3.26255 2.26375C2.45538 3.07168 2.00133 4.16709 2 5.30968Z" fill="#211F1F"/>
<path d="M52.232 1H10.6112V58.4624H52.232C52.4205 58.4625 52.6072 58.4254 52.7814 58.3533C52.9555 58.2811 53.1138 58.1753 53.2471 58.0419C53.3804 57.9085 53.4861 57.7501 53.5582 57.5757C53.6303 57.4014 53.6673 57.2145 53.6672 57.0259V2.43656C53.6673 2.24788 53.6303 2.06104 53.5582 1.8867C53.4861 1.71237 53.3804 1.55396 53.2471 1.42055C53.1138 1.28713 52.9555 1.18132 52.7814 1.10916C52.6072 1.037 52.4205 0.999906 52.232 1ZM24.9632 29.5186V45.5334C24.9632 45.9144 24.812 46.2798 24.5429 46.5492C24.2737 46.8186 23.9086 46.9699 23.528 46.9699C23.1474 46.9699 22.7823 46.8186 22.5132 46.5492C22.244 46.2798 22.0928 45.9144 22.0928 45.5334V29.5186C19.8783 28.9275 17.7872 26.9055 17.7872 22.5484C17.7872 18.4377 19.8309 12.4925 23.528 12.4925C27.2251 12.4925 29.2688 18.4377 29.2688 22.5484C29.2688 26.9055 27.1777 28.9275 24.9632 29.5186ZM46.4912 22.5484C46.4892 24.2035 45.9171 25.8072 44.8713 27.0893C43.8255 28.3713 42.3701 29.2531 40.7504 29.5861V45.5334C40.7504 45.9144 40.5992 46.2798 40.3301 46.5492C40.0609 46.8186 39.6959 46.9699 39.3152 46.9699C38.9346 46.9699 38.5695 46.8186 38.3004 46.5492C38.0312 46.2798 37.88 45.9144 37.88 45.5334V29.5861C36.2603 29.2531 34.8049 28.3713 33.7591 27.0893C32.7133 25.8072 32.1412 24.2035 32.1392 22.5484V15.3656C32.1392 14.9846 32.2904 14.6192 32.5596 14.3498C32.8287 14.0804 33.1938 13.929 33.5744 13.929C33.9551 13.929 34.3201 14.0804 34.5893 14.3498C34.8584 14.6192 35.0096 14.9846 35.0096 15.3656V22.5484C35.0122 23.4368 35.2896 24.3026 35.8035 25.027C36.3175 25.7513 37.0428 26.2986 37.88 26.5938V15.3656C37.88 14.9846 38.0312 14.6192 38.3004 14.3498C38.5695 14.0804 38.9346 13.929 39.3152 13.929C39.6959 13.929 40.0609 14.0804 40.3301 14.3498C40.5992 14.6192 40.7504 14.9846 40.7504 15.3656V26.5938C41.5876 26.2986 42.3129 25.7513 42.8269 25.027C43.3408 24.3026 43.6182 23.4368 43.6208 22.5484V15.3656C43.6208 14.9846 43.772 14.6192 44.0412 14.3498C44.3103 14.0804 44.6754 13.929 45.056 13.929C45.4367 13.929 45.8017 14.0804 46.0709 14.3498C46.34 14.6192 46.4912 14.9846 46.4912 15.3656V22.5484Z" fill="#211F1F"/>
<path d="M23.528 15.3656C22.5578 15.3656 20.6576 18.6173 20.6576 22.5484C20.6576 24.1574 21.0307 26.8581 23.528 26.8581C26.0252 26.8581 26.3984 24.1574 26.3984 22.5484C26.3984 18.6173 24.4982 15.3656 23.528 15.3656Z" fill="#211F1F"/>
<path d="M70.16 50L63.92 22H71L74.4 39.28L79.28 22H85.72L90.6 39.28L94 22H100.84L94.6 50H87.32L82.4 32.16L77.44 50H70.16ZM103.75 50V28.84H110.23V50H103.75ZM106.99 26.88C106.003 26.88 105.163 26.5333 104.47 25.84C103.777 25.1467 103.43 24.3067 103.43 23.32C103.43 22.3333 103.777 21.4933 104.47 20.8C105.163 20.1067 106.003 19.76 106.99 19.76C107.977 19.76 108.817 20.1067 109.51 20.8C110.203 21.4933 110.55 22.3333 110.55 23.32C110.55 24.3067 110.203 25.1467 109.51 25.84C108.817 26.5333 107.977 26.88 106.99 26.88ZM114.219 50V22L120.699 21V37.48L129.139 28.84H136.379L126.979 38.4L137.019 50H128.819L120.699 40.52V50H114.219ZM138.086 50V28.84H144.566V50H138.086ZM141.326 26.88C140.339 26.88 139.499 26.5333 138.806 25.84C138.113 25.1467 137.766 24.3067 137.766 23.32C137.766 22.3333 138.113 21.4933 138.806 20.8C139.499 20.1067 140.339 19.76 141.326 19.76C142.313 19.76 143.153 20.1067 143.846 20.8C144.539 21.4933 144.886 22.3333 144.886 23.32C144.886 24.3067 144.539 25.1467 143.846 25.84C143.153 26.5333 142.313 26.88 141.326 26.88ZM148.875 50V22H170.955V27.96H155.755V33H165.795V38.76H155.755V44.04H171.115V50H148.875ZM181.604 50.36C180.11 50.36 178.777 50.08 177.604 49.52C176.457 48.96 175.55 48.1867 174.884 47.2C174.244 46.2133 173.924 45.08 173.924 43.8C173.924 41.7733 174.684 40.2133 176.204 39.12C177.75 38 179.897 37.44 182.644 37.44C184.297 37.44 185.897 37.64 187.444 38.04V37C187.444 35.9333 187.097 35.1467 186.404 34.64C185.737 34.1067 184.737 33.84 183.404 33.84C182.577 33.84 181.644 33.9733 180.604 34.24C179.59 34.5067 178.39 34.9333 177.004 35.52L174.684 30.76C176.417 29.9867 178.084 29.4133 179.684 29.04C181.31 28.64 182.937 28.44 184.564 28.44C187.497 28.44 189.777 29.1467 191.404 30.56C193.03 31.9467 193.844 33.9067 193.844 36.44V50H187.444V48.72C186.59 49.3067 185.684 49.7333 184.724 50C183.79 50.24 182.75 50.36 181.604 50.36ZM180.084 43.68C180.084 44.3467 180.377 44.8667 180.964 45.24C181.55 45.6133 182.364 45.8 183.404 45.8C184.177 45.8 184.897 45.72 185.564 45.56C186.257 45.4 186.884 45.1467 187.444 44.8V42.08C186.83 41.92 186.204 41.8 185.564 41.72C184.924 41.64 184.27 41.6 183.604 41.6C182.484 41.6 181.617 41.7867 181.004 42.16C180.39 42.5067 180.084 43.0133 180.084 43.68ZM207.789 50.28C205.256 50.28 203.336 49.72 202.029 48.6C200.749 47.4533 200.109 45.7733 200.109 43.56V34.24H195.829V28.84H200.109V23.4L206.589 22V28.84H212.509V34.24H206.589V42.28C206.589 43.2133 206.789 43.88 207.189 44.28C207.616 44.6533 208.349 44.84 209.389 44.84C209.923 44.84 210.403 44.8133 210.829 44.76C211.283 44.68 211.776 44.56 212.309 44.4V49.64C211.723 49.8267 210.976 49.9733 210.069 50.08C209.163 50.2133 208.403 50.28 207.789 50.28ZM223.79 50.4C221.79 50.4 219.936 50.1733 218.23 49.72C216.523 49.24 215.043 48.5467 213.79 47.64L216.87 43.28C218.203 44.08 219.416 44.6667 220.51 45.04C221.603 45.3867 222.683 45.56 223.75 45.56C224.816 45.56 225.656 45.4133 226.27 45.12C226.91 44.8 227.23 44.3867 227.23 43.88C227.23 43.48 227.056 43.16 226.71 42.92C226.363 42.6533 225.816 42.4667 225.07 42.36L220.87 41.72C218.763 41.4 217.15 40.7067 216.03 39.64C214.936 38.5467 214.39 37.1333 214.39 35.4C214.39 33.96 214.75 32.7333 215.47 31.72C216.216 30.68 217.27 29.8933 218.63 29.36C219.99 28.8 221.616 28.52 223.51 28.52C225.056 28.52 226.59 28.7333 228.11 29.16C229.63 29.5867 231.043 30.2267 232.35 31.08L229.27 35.24C228.123 34.5733 227.03 34.0933 225.99 33.8C224.95 33.48 223.91 33.32 222.87 33.32C222.043 33.32 221.376 33.4667 220.87 33.76C220.363 34.0267 220.11 34.3867 220.11 34.84C220.11 35.2667 220.296 35.6133 220.67 35.88C221.043 36.12 221.683 36.3067 222.59 36.44L226.79 37.08C228.87 37.3733 230.47 38.0667 231.59 39.16C232.736 40.2267 233.31 41.5867 233.31 43.24C233.31 44.6267 232.896 45.8533 232.07 46.92C231.243 47.9867 230.11 48.84 228.67 49.48C227.256 50.0933 225.63 50.4 223.79 50.4Z" fill="#211F1F"/>
</g>
<defs>
<clipPath id="clip0_79_2">
<rect width="235" height="60" fill="white"/>
</clipPath>
</defs>
</svg>
