<svg width="54" height="60" viewBox="0 0 54 60" fill="none" xmlns="http://www.w3.org/2000/svg">
<path d="M0 5C0 2.23858 2.23858 0 5 0H51.66C52.7646 0 53.66 0.895431 53.66 2V57.46C53.66 58.5646 52.7646 59.46 51.66 59.46H5C2.23857 59.46 0 57.2214 0 54.46V5Z" fill="white"/>
<rect x="6" y="1" width="42" height="57.46" fill="white"/>
<path d="M1 5.30968V54.1527C1.00133 55.2953 1.45538 56.3907 2.26255 57.1987C3.06972 58.0066 4.16409 58.4611 5.3056 58.4624H6.7408V1H5.3056C4.16409 1.00133 3.06972 1.45581 2.26255 2.26375C1.45538 3.07168 1.00133 4.16709 1 5.30968Z" fill="#211F1F"/>
<path d="M51.232 1H9.61121V58.4624H51.232C51.4205 58.4625 51.6072 58.4254 51.7814 58.3533C51.9555 58.2811 52.1138 58.1753 52.2471 58.0419C52.3804 57.9085 52.4861 57.7501 52.5582 57.5757C52.6303 57.4014 52.6673 57.2145 52.6672 57.0259V2.43656C52.6673 2.24788 52.6303 2.06104 52.5582 1.8867C52.4861 1.71237 52.3804 1.55396 52.2471 1.42055C52.1138 1.28713 51.9555 1.18132 51.7814 1.10916C51.6072 1.037 51.4205 0.999906 51.232 1ZM23.9632 29.5186V45.5334C23.9632 45.9144 23.812 46.2798 23.5429 46.5492C23.2737 46.8186 22.9086 46.9699 22.528 46.9699C22.1474 46.9699 21.7823 46.8186 21.5132 46.5492C21.244 46.2798 21.0928 45.9144 21.0928 45.5334V29.5186C18.8783 28.9275 16.7872 26.9055 16.7872 22.5484C16.7872 18.4377 18.8309 12.4925 22.528 12.4925C26.2251 12.4925 28.2688 18.4377 28.2688 22.5484C28.2688 26.9055 26.1777 28.9275 23.9632 29.5186ZM45.4912 22.5484C45.4892 24.2035 44.9171 25.8072 43.8713 27.0893C42.8255 28.3713 41.3701 29.2531 39.7504 29.5861V45.5334C39.7504 45.9144 39.5992 46.2798 39.3301 46.5492C39.0609 46.8186 38.6959 46.9699 38.3152 46.9699C37.9346 46.9699 37.5695 46.8186 37.3004 46.5492C37.0312 46.2798 36.88 45.9144 36.88 45.5334V29.5861C35.2603 29.2531 33.8049 28.3713 32.7591 27.0893C31.7133 25.8072 31.1412 24.2035 31.1392 22.5484V15.3656C31.1392 14.9846 31.2904 14.6192 31.5596 14.3498C31.8287 14.0804 32.1938 13.929 32.5744 13.929C32.9551 13.929 33.3201 14.0804 33.5893 14.3498C33.8584 14.6192 34.0096 14.9846 34.0096 15.3656V22.5484C34.0122 23.4368 34.2896 24.3026 34.8035 25.027C35.3175 25.7513 36.0428 26.2986 36.88 26.5938V15.3656C36.88 14.9846 37.0312 14.6192 37.3004 14.3498C37.5695 14.0804 37.9346 13.929 38.3152 13.929C38.6959 13.929 39.0609 14.0804 39.3301 14.3498C39.5992 14.6192 39.7504 14.9846 39.7504 15.3656V26.5938C40.5876 26.2986 41.3129 25.7513 41.8269 25.027C42.3408 24.3026 42.6182 23.4368 42.6208 22.5484V15.3656C42.6208 14.9846 42.772 14.6192 43.0412 14.3498C43.3103 14.0804 43.6754 13.929 44.056 13.929C44.4367 13.929 44.8017 14.0804 45.0709 14.3498C45.34 14.6192 45.4912 14.9846 45.4912 15.3656V22.5484Z" fill="#211F1F"/>
<path d="M22.528 15.3656C21.5578 15.3656 19.6576 18.6173 19.6576 22.5484C19.6576 24.1574 20.0307 26.8581 22.528 26.8581C25.0252 26.8581 25.3984 24.1574 25.3984 22.5484C25.3984 18.6173 23.4982 15.3656 22.528 15.3656Z" fill="#211F1F"/>
</svg>
