<svg width="18" height="18" viewBox="0 0 18 18" fill="none" xmlns="http://www.w3.org/2000/svg">
<g clip-path="url(#clip0_64_64)">
<rect width="17.2" height="17.62" fill="white"/>
<mask id="path-1-inside-1_64_64" fill="white">
<path d="M5.54796 9.23865L8.37638 12.0671L3.42264 17.0208C2.64159 17.8019 1.37526 17.8019 0.594213 17.0208C-0.186835 16.2398 -0.186835 14.9734 0.594213 14.1924L5.54796 9.23865Z"/>
</mask>
<path d="M5.54796 9.23865L8.37638 12.0671L5.54796 9.23865ZM4.83685 18.435C3.27476 19.9971 0.742097 19.9971 -0.82 18.435C-2.3821 16.8729 -2.3821 14.3403 -0.82 12.7782L2.00843 15.6066L4.83685 18.435ZM-0.82 18.435C-2.3821 16.8729 -2.3821 14.3403 -0.82 12.7782L4.13374 7.82443L6.96217 10.6529L2.00843 15.6066L-0.82 18.435ZM9.7906 13.4813L4.83685 18.435C3.27476 19.9971 0.742097 19.9971 -0.82 18.435L2.00843 15.6066L6.96217 10.6529L9.7906 13.4813Z" fill="#7C7C7C" mask="url(#path-1-inside-1_64_64)"/>
<circle cx="10.68" cy="6.5" r="5.5" stroke="#7C7C7C" stroke-width="2"/>
</g>
<defs>
<clipPath id="clip0_64_64">
<rect width="17.2" height="17.62" fill="white"/>
</clipPath>
</defs>
</svg>
